<mxfile host="app.diagrams.net" modified="2021-03-07T12:31:10.034Z" agent="5.0 (Macintosh; Intel Mac OS X 10_15_3) AppleWebKit/537.36 (KHTML, like Gecko) Chrome/88.0.4324.192 Safari/537.36" etag="kJ5okz_qJ6Ese0GIcecT" version="14.4.4" type="github" pages="2">
  <diagram id="prtHgNgQTEPvFCAcTncT" name="Page-1">
    <mxGraphModel dx="499" dy="311" grid="1" gridSize="10" guides="1" tooltips="1" connect="1" arrows="1" fold="1" page="0" pageScale="1" pageWidth="827" pageHeight="1169" background="none" math="0" shadow="0">
      <root>
        <mxCell id="0" />
        <mxCell id="1" parent="0" />
        <mxCell id="o2OGpEkuraGr4_DivWY1-2" value="&lt;span&gt;&lt;font style=&quot;font-size: 14px&quot;&gt;Data Compiler&lt;/font&gt;&lt;/span&gt;" style="rounded=0;whiteSpace=wrap;html=1;" vertex="1" parent="1">
          <mxGeometry x="480" y="430" width="120" height="60" as="geometry" />
        </mxCell>
        <mxCell id="o2OGpEkuraGr4_DivWY1-4" value="&lt;font style=&quot;font-size: 14px&quot;&gt;Navigation Engine&lt;br&gt;&lt;/font&gt;routing, map, poi search" style="rounded=0;whiteSpace=wrap;html=1;" vertex="1" parent="1">
          <mxGeometry x="300" y="430" width="120" height="60" as="geometry" />
        </mxCell>
        <mxCell id="o2OGpEkuraGr4_DivWY1-5" value="&lt;font style=&quot;font-size: 14px&quot;&gt;Servers&lt;br&gt;&lt;/font&gt;route server, tile server, poi server" style="rounded=0;whiteSpace=wrap;html=1;" vertex="1" parent="1">
          <mxGeometry x="300" y="540" width="120" height="60" as="geometry" />
        </mxCell>
        <mxCell id="o2OGpEkuraGr4_DivWY1-7" value="&lt;font style=&quot;font-size: 14px&quot;&gt;SDKs&lt;/font&gt;" style="rounded=0;whiteSpace=wrap;html=1;" vertex="1" parent="1">
          <mxGeometry x="480" y="540" width="120" height="60" as="geometry" />
        </mxCell>
        <mxCell id="o2OGpEkuraGr4_DivWY1-8" value="" style="rounded=0;whiteSpace=wrap;html=1;dashed=1;fillOpacity=0;" vertex="1" parent="1">
          <mxGeometry x="275" y="380" width="350" height="240" as="geometry" />
        </mxCell>
        <mxCell id="o2OGpEkuraGr4_DivWY1-10" value="&lt;font style=&quot;font-size: 14px&quot;&gt;NaviCore&amp;nbsp;&lt;/font&gt;" style="text;html=1;strokeColor=none;fillColor=none;align=center;verticalAlign=middle;whiteSpace=wrap;rounded=0;dashed=1;" vertex="1" parent="1">
          <mxGeometry x="430" y="390" width="40" height="20" as="geometry" />
        </mxCell>
        <mxCell id="o2OGpEkuraGr4_DivWY1-11" value="" style="shape=flexArrow;endArrow=classic;html=1;" edge="1" parent="1">
          <mxGeometry width="50" height="50" relative="1" as="geometry">
            <mxPoint x="170" y="500" as="sourcePoint" />
            <mxPoint x="260" y="499.5" as="targetPoint" />
          </mxGeometry>
        </mxCell>
        <mxCell id="o2OGpEkuraGr4_DivWY1-12" value="Mifg Data" style="edgeLabel;html=1;align=center;verticalAlign=middle;resizable=0;points=[];" vertex="1" connectable="0" parent="o2OGpEkuraGr4_DivWY1-11">
          <mxGeometry x="0.267" y="3" relative="1" as="geometry">
            <mxPoint x="-26.98" y="-16.68" as="offset" />
          </mxGeometry>
        </mxCell>
        <mxCell id="o2OGpEkuraGr4_DivWY1-15" value="" style="shape=flexArrow;endArrow=classic;html=1;" edge="1" parent="1">
          <mxGeometry width="50" height="50" relative="1" as="geometry">
            <mxPoint x="640" y="490.5" as="sourcePoint" />
            <mxPoint x="730" y="490" as="targetPoint" />
          </mxGeometry>
        </mxCell>
        <mxCell id="o2OGpEkuraGr4_DivWY1-16" value="SDKs, Compilers, Base servers" style="edgeLabel;html=1;align=center;verticalAlign=middle;resizable=0;points=[];" vertex="1" connectable="0" parent="o2OGpEkuraGr4_DivWY1-15">
          <mxGeometry x="0.267" y="3" relative="1" as="geometry">
            <mxPoint x="13.02" y="-16.68" as="offset" />
          </mxGeometry>
        </mxCell>
      </root>
    </mxGraphModel>
  </diagram>
  <diagram id="SL4xGN8Oig8oMLjpY7d2" name="Page-2">
    <mxGraphModel dx="749" dy="466" grid="1" gridSize="10" guides="1" tooltips="1" connect="1" arrows="1" fold="1" page="1" pageScale="1" pageWidth="850" pageHeight="1100" math="0" shadow="0">
      <root>
        <mxCell id="jtpJJ4y1cO9GTuNXIInl-0" />
        <mxCell id="jtpJJ4y1cO9GTuNXIInl-1" parent="jtpJJ4y1cO9GTuNXIInl-0" />
      </root>
    </mxGraphModel>
  </diagram>
</mxfile>
